<svg xmlns="http://www.w3.org/2000/svg" viewBox="0 0 511 511" width="511" height="511"><defs></defs><g>
<g>
	<g transform="matrix(1,0,0,1,55.5,67.5)">
		<g transform="matrix(4.043988418,0,0,4.043988418,200.500002996,233.548220007)">
			<path d="M54.918785,0.000919C50.335133,0.022217 45.957848,0.413137 42.106285,1.094669 C30.760069,3.099173 28.700035,7.294771 28.700035,15.032169 C28.700035,15.032169 28.700035,25.250919 28.700035,25.250919 C28.700035,25.250919 55.512535,25.250919 55.512535,25.250919 C55.512535,25.250919 55.512535,28.657169 55.512535,28.657169 C55.512535,28.657169 28.700035,28.657169 28.700035,28.657169 C28.700035,28.657169 18.637535,28.657169 18.637535,28.657169 C10.845076,28.657169 4.021776,33.340885 1.887535,42.250919 C-0.574285,52.463886 -0.683480,58.836941 1.887535,69.500916 C3.793463,77.438774 8.345078,83.094666 16.137535,83.094666 C16.137535,83.094666 25.356285,83.094666 25.356285,83.094666 C25.356285,83.094666 25.356285,70.844666 25.356285,70.844666 C25.356285,61.994766 33.013428,54.188419 42.106285,54.188419 C42.106285,54.188419 68.887535,54.188419 68.887535,54.188419 C76.342484,54.188419 82.293785,48.050255 82.293785,40.563419 C82.293785,40.563419 82.293785,15.032169 82.293785,15.032169 C82.293785,7.765831 76.163803,2.307392 68.887535,1.094669 C64.281548,0.327944 59.502438,-0.020379 54.918785,0.000919 C54.918785,0.000919 54.918785,0.000919 54.918785,0.000919 ZM40.418785,8.219669C43.188332,8.219669 45.450035,10.518315 45.450035,13.344669 C45.450031,16.161005 43.188332,18.438419 40.418785,18.438419 C37.639309,18.438417 35.387535,16.161003 35.387535,13.344669 C35.387535,10.518316 37.639309,8.219669 40.418785,8.219669 C40.418785,8.219669 40.418785,8.219669 40.418785,8.219669 Z" transform="matrix(1,0,0,1,-55.580677032,-67.33405304)" fill="#ffce00"/>
			<path d="M85.637535,28.657169C85.637535,28.657169 85.637535,40.563419 85.637535,40.563419 C85.637535,49.794174 77.811638,57.563419 68.887535,57.563419 C68.887535,57.563419 42.106285,57.563419 42.106285,57.563419 C34.770451,57.563419 28.700035,63.841904 28.700035,71.188416 C28.700035,71.188416 28.700035,96.719666 28.700035,96.719666 C28.700035,103.986008 35.018623,108.259987 42.106285,110.344673 C50.593616,112.840279 58.732521,113.291298 68.887535,110.344673 C75.637688,108.390282 82.293785,104.457062 82.293785,96.719666 C82.293785,96.719666 82.293785,86.500916 82.293785,86.500916 C82.293785,86.500916 55.512535,86.500916 55.512535,86.500916 C55.512535,86.500916 55.512535,83.094666 55.512535,83.094666 C55.512535,83.094666 82.293785,83.094666 82.293785,83.094666 C82.293785,83.094666 95.700043,83.094666 95.700043,83.094666 C103.492500,83.094666 106.396294,77.659264 109.106277,69.500916 C111.905609,61.102032 111.786499,53.025143 109.106277,42.250919 C107.180496,34.493477 103.502411,28.657169 95.700043,28.657169 C95.700043,28.657169 85.637535,28.657169 85.637535,28.657169 ZM70.575035,93.313416C73.354515,93.313423 75.606285,95.590836 75.606285,98.407166 C75.606285,101.233521 73.354507,103.532173 70.575035,103.532173 C67.805489,103.532173 65.543785,101.233521 65.543785,98.407166 C65.543785,95.590836 67.805481,93.313416 70.575035,93.313416 C70.575035,93.313416 70.575035,93.313416 70.575035,93.313416 Z" transform="matrix(1,0,0,1,-55.580677032,-67.33405304)" fill="#2c2c2c"/>
		</g>
	</g>
</g></g></svg>